<?xml version="1.0" standalone="no"?>
<!DOCTYPE svg PUBLIC "-//W3C//DTD SVG 20010904//EN"
 "http://www.w3.org/TR/2001/REC-SVG-20010904/DTD/svg10.dtd">
<svg version="1.0" xmlns="http://www.w3.org/2000/svg"
 width="512.000000pt" height="512.000000pt" viewBox="0 0 512.000000 512.000000"
 preserveAspectRatio="xMidYMid meet">

<g transform="translate(0.000000,512.000000) scale(0.100000,-0.100000)"
fill="#000000" stroke="none">
<path d="M2360 5023 c-123 -10 -378 -59 -513 -100 -84 -24 -156 -48 -162 -52
-5 -5 -37 -18 -70 -30 -72 -27 -296 -143 -381 -197 -307 -199 -559 -451 -758
-758 -50 -79 -169 -305 -196 -376 -11 -30 -27 -68 -35 -85 -31 -69 -96 -321
-122 -470 -24 -143 -27 -185 -27 -395 0 -211 3 -251 28 -398 25 -146 105 -451
125 -477 5 -5 18 -37 30 -70 27 -72 143 -296 197 -381 282 -434 675 -763 1149
-958 136 -57 350 -120 470 -139 50 -8 126 -21 170 -29 52 -8 159 -13 305 -12
196 1 246 4 385 28 143 24 453 105 480 125 5 4 33 16 60 26 137 50 359 174
505 280 263 191 452 391 646 683 45 68 167 301 194 372 11 30 27 69 35 85 30
67 96 322 122 471 23 141 27 186 27 394 0 210 -3 252 -27 394 -28 161 -92 405
-129 485 -11 25 -27 63 -35 85 -19 54 -140 286 -189 362 -199 307 -451 559
-758 758 -79 50 -305 169 -376 196 -30 11 -68 27 -85 35 -114 51 -427 122
-645 145 -90 9 -321 11 -420 3z m370 -493 c375 -32 748 -180 1057 -420 81 -63
262 -243 321 -320 311 -406 462 -894 423 -1373 -51 -627 -364 -1156 -896
-1515 -333 -224 -807 -346 -1217 -313 -313 26 -591 112 -853 264 -198 116
-421 309 -556 482 -306 393 -457 882 -420 1365 30 396 175 771 420 1085 72 92
238 258 326 326 404 314 898 462 1395 419z"/>
<path d="M2513 3789 c-79 -15 -158 -82 -185 -156 -10 -30 -13 -174 -13 -703 0
-725 -1 -710 58 -776 118 -136 345 -101 414 63 10 26 13 165 13 715 0 643 -2
685 -19 723 -45 96 -160 154 -268 134z"/>
<path d="M2484 1807 c-174 -68 -226 -288 -97 -409 104 -98 264 -93 355 11 43
49 58 91 58 163 -1 101 -51 182 -139 224 -45 22 -136 28 -177 11z"/>
</g>
</svg>
