<?xml version="1.0" standalone="no"?>
<!DOCTYPE svg PUBLIC "-//W3C//DTD SVG 20010904//EN"
 "http://www.w3.org/TR/2001/REC-SVG-20010904/DTD/svg10.dtd">
<svg version="1.0" xmlns="http://www.w3.org/2000/svg"
 width="512.000000pt" height="525.000000pt" viewBox="0 0 512.000000 525.000000"
 preserveAspectRatio="xMidYMid meet">

<g transform="translate(0.000000,525.000000) scale(0.100000,-0.100000)"
fill="#000000" stroke="none">
<path d="M760 5114 c-227 -49 -372 -128 -516 -281 -74 -80 -146 -195 -185
-300 -62 -164 -60 -113 -56 -1644 3 -1532 -3 -1400 65 -1571 83 -215 257 -398
469 -494 41 -19 102 -42 134 -51 l58 -16 3 -312 3 -312 30 -43 c50 -72 141
-99 222 -65 24 10 154 134 385 365 l348 349 1322 3 1323 3 74 23 c172 53 299
130 420 252 127 130 214 299 246 479 21 118 22 2754 1 2871 -28 155 -106 321
-208 441 -107 126 -283 236 -458 286 l-95 28 -1760 2 c-1485 1 -1770 -1 -1825
-13z m3580 -370 c169 -40 322 -177 382 -344 l23 -65 3 -1379 2 -1378 -21 -80
c-45 -165 -182 -308 -352 -365 l-82 -28 -1355 -5 c-1114 -4 -1359 -7 -1380
-19 -14 -7 -122 -110 -242 -229 l-216 -215 -4 169 c-3 165 -4 170 -30 211 -36
55 -86 80 -179 89 -88 8 -209 45 -262 80 -103 68 -193 179 -229 283 l-23 66 0
1400 0 1400 23 65 c59 164 212 304 378 344 92 22 3469 23 3564 0z"/>
<path d="M1224 4023 c-12 -2 -40 -20 -63 -39 -90 -78 -78 -230 23 -289 l43
-25 1330 0 1330 0 43 23 c111 59 119 223 14 303 l-37 29 -1331 1 c-732 1
-1341 0 -1352 -3z"/>
<path d="M1238 3110 c-54 -16 -100 -53 -119 -94 -39 -85 -13 -183 62 -233 l43
-28 1336 0 1336 0 43 28 c110 73 107 237 -6 304 l-48 28 -1310 2 c-720 1
-1322 -2 -1337 -7z"/>
<path d="M1205 2186 c-63 -28 -105 -94 -105 -166 0 -73 42 -138 107 -166 48
-21 2657 -21 2706 0 44 18 95 78 103 121 16 89 -28 180 -103 211 -48 20 -2663
20 -2708 0z"/>
</g>
</svg>
