<?xml version="1.0" standalone="no"?>
<!DOCTYPE svg PUBLIC "-//W3C//DTD SVG 20010904//EN"
 "http://www.w3.org/TR/2001/REC-SVG-20010904/DTD/svg10.dtd">
<svg version="1.0" xmlns="http://www.w3.org/2000/svg"
 width="512.000000pt" height="512.000000pt" viewBox="0 0 512.000000 512.000000"
 preserveAspectRatio="xMidYMid meet">

<g transform="translate(0.000000,512.000000) scale(0.100000,-0.100000)"
fill="#000000" stroke="none">
<path d="M2380 4954 c-537 -51 -997 -242 -1386 -578 -441 -379 -716 -882 -811
-1478 -24 -157 -24 -517 1 -676 74 -472 259 -879 561 -1230 382 -445 916 -731
1515 -814 123 -17 478 -16 600 1 698 96 1291 459 1679 1026 465 680 549 1542
224 2304 -184 432 -505 809 -913 1073 -313 203 -693 333 -1075 368 -102 9
-313 11 -395 4z m305 -975 c113 -42 201 -140 230 -256 15 -60 14 -86 -40 -735
-30 -370 -58 -686 -61 -703 -23 -111 -139 -205 -255 -205 -117 0 -234 97 -253
210 -4 19 -31 334 -62 699 -58 708 -58 708 -15 806 72 163 284 248 456 184z
m10 -2250 c63 -30 123 -90 155 -154 20 -41 25 -65 24 -135 0 -72 -4 -93 -27
-137 -34 -66 -84 -116 -150 -150 -44 -23 -65 -27 -137 -27 -70 -1 -94 4 -135
24 -260 128 -238 495 35 594 63 23 170 16 235 -15z"/>
</g>
</svg>
